<svg width="1917" height="861" viewBox="0 0 1917 861" fill="none" xmlns="http://www.w3.org/2000/svg">
<path d="M737.592 651.739L376.303 860.33L15.0098 651.737L376.299 443.146L737.592 651.739ZM752.587 523.534V625.755L660.688 572.696V470.476L752.587 523.534ZM91.9189 572.691L0.0195312 625.751V523.535L91.9189 470.476V572.691ZM630.688 453.155V555.375L530.345 497.442V395.223L630.688 453.155ZM229.397 493.318L121.918 555.371V453.155L229.397 391.103V493.318ZM91.9189 435.834L0.0195312 488.894V367.117L91.9189 314.058V435.834ZM752.587 367.116V488.894L660.688 435.835V314.058L752.587 367.116ZM500.345 377.902V480.122L391.304 417.168L391.303 314.947L500.345 377.902ZM361.304 417.163L259.397 475.998V373.782L361.304 314.947V417.163ZM229.397 356.461L121.918 418.514V296.737L229.397 234.685V356.461ZM630.688 296.737V418.514L530.345 360.581V238.805L630.688 296.737ZM500.345 221.484V343.261L391.303 280.306V158.529L500.345 221.484ZM361.304 280.306L259.397 339.141V217.364L361.304 158.529V280.306ZM91.9189 279.416L0.0195312 332.476V208.588L91.9189 155.528V279.416ZM752.587 208.588V332.476L660.688 279.417V155.529L752.587 208.588ZM229.397 200.043L121.918 262.096V138.208L229.397 76.1553V200.043ZM630.688 138.208V262.096L530.345 204.163V80.2754L630.688 138.208ZM500.345 62.9551V186.843L391.303 123.888L391.304 0.000976562L500.345 62.9551ZM361.304 123.888L259.397 182.723V58.835L361.304 0V123.888Z" fill="black"/>
<path d="M1703.18 653.747L1727.48 491.553H1786.7L1768.78 611.349H1917L1910.62 653.747H1703.18Z" fill="black"/>
<path d="M1466.49 653.747L1490.79 491.553H1550.01L1532.1 611.349H1680.31L1673.93 653.747H1466.49Z" fill="black"/>
<path d="M1161.74 653.747L1235.54 568.666H1328.18L1316.33 547.04H1255.28L1302.06 491.553H1351.26L1443.29 653.747H1376.47L1351.26 611.064H1266.82L1228.25 653.747H1161.74Z" fill="black"/>
<path d="M975.643 491.553H1042.16L1100.47 597.121L1190.37 491.553H1257.19L1116.27 653.747H1067.67L1043.37 611.349L1006.62 653.747H958.028L866 491.553H932.515L990.83 597.121L1017.56 566.105L975.643 491.553Z" fill="black"/>
<path d="M1586.81 272.447H1646.03L1637.83 326.511H1775.72L1787.26 249.398H1590.15L1596.53 207H1853.48L1834.34 333.91C1832.52 344.154 1827.05 352.406 1817.64 359.235C1807.92 366.064 1795.77 369.194 1780.58 369.194H1572.23L1586.81 272.447Z" fill="black"/>
<path d="M1508.14 207H1567.37L1543.07 369.194H1483.84L1508.14 207Z" fill="black"/>
<path d="M1229.69 273.869H1410.71L1414.35 249.398H1233.34L1239.71 207H1439.56C1454.14 207 1464.16 210.13 1469.63 216.106C1475.1 222.366 1476.92 230.049 1475.4 239.723L1469.33 280.983C1467.51 291.796 1462.04 300.333 1452.32 306.024C1442.6 311.999 1429.84 315.129 1414.66 315.129L1464.16 369.194H1390.66L1340.55 316.268H1282.54L1274.64 369.194H1215.42L1229.69 273.869Z" fill="black"/>
<path d="M1200.72 273.016L1186.14 369.194H929.195L948.633 239.723C950.152 230.049 954.708 222.366 962.301 216.106C969.59 210.13 981.435 207 997.229 207H1210.44L1204.06 249.398H1006.95L995.407 326.511H1133.3L1141.5 273.016H1200.72Z" fill="black"/>
</svg>
