<svg width="74" height="59" viewBox="0 0 74 59" fill="none" xmlns="http://www.w3.org/2000/svg">
<rect width="74" height="59" rx="10" fill="#FF9500"/>
<g clip-path="url(#clip0_1118_407)">
<path d="M37.5 4.91667C27.9985 4.91667 20.2917 12.6235 20.2917 22.125C20.2917 35.0313 37.5 54.0833 37.5 54.0833C37.5 54.0833 54.7083 35.0313 54.7083 22.125C54.7083 12.6235 47.0015 4.91667 37.5 4.91667ZM37.5 28.2708C34.1075 28.2708 31.3542 25.5175 31.3542 22.125C31.3542 18.7325 34.1075 15.9792 37.5 15.9792C40.8925 15.9792 43.6458 18.7325 43.6458 22.125C43.6458 25.5175 40.8925 28.2708 37.5 28.2708Z" fill="black"/>
</g>
<defs>
<clipPath id="clip0_1118_407">
<rect width="59" height="59" fill="white" transform="translate(8)"/>
</clipPath>
</defs>
</svg>
