<svg width="61" height="61" viewBox="0 0 61 61" fill="none" xmlns="http://www.w3.org/2000/svg">
<path d="M7.625 30.5C7.625 33.504 8.21668 36.4786 9.36626 39.2539C10.5158 42.0292 12.2008 44.5509 14.3249 46.6751C16.4491 48.7992 18.9708 50.4842 21.7461 51.6337C24.5214 52.7833 27.496 53.375 30.5 53.375C33.504 53.375 36.4786 52.7833 39.2539 51.6337C42.0292 50.4842 44.5509 48.7992 46.6751 46.6751C48.7992 44.5509 50.4842 42.0292 51.6337 39.2539C52.7833 36.4786 53.375 33.504 53.375 30.5C53.375 24.4332 50.965 18.6148 46.6751 14.3249C42.3852 10.035 36.5668 7.625 30.5 7.625C24.4332 7.625 18.6148 10.035 14.3249 14.3249C10.035 18.6148 7.625 24.4332 7.625 30.5Z" stroke="#FF9500" stroke-width="5" stroke-linecap="round" stroke-linejoin="round"/>
<path d="M9.14996 22.875H51.85" stroke="#FF9500" stroke-width="5" stroke-linecap="round" stroke-linejoin="round"/>
<path d="M9.14996 38.125H51.85" stroke="#FF9500" stroke-width="5" stroke-linecap="round" stroke-linejoin="round"/>
<path d="M29.2292 7.625C24.9474 14.4865 22.6773 22.4121 22.6773 30.5C22.6773 38.5879 24.9474 46.5135 29.2292 53.375" stroke="#FF9500" stroke-width="5" stroke-linecap="round" stroke-linejoin="round"/>
<path d="M31.7708 7.625C36.0527 14.4865 38.3227 22.4121 38.3227 30.5C38.3227 38.5879 36.0527 46.5135 31.7708 53.375" stroke="#FF9500" stroke-width="5" stroke-linecap="round" stroke-linejoin="round"/>
</svg>
